<svg height="2206" width="720" xmlns="http://www.w3.org/2000/svg">
<rect height="2206" fill="#555" width="720"></rect>
<text fill="#7f7" font-family="Courier New" font-size="12" xml:space="preserve">
<tspan x="10" y="26">└─┬ local-web-server@1.2.7 </tspan>
<tspan x="10" y="42">  ├── ansi-escape-sequences@3.0.0 </tspan>
<tspan x="10" y="58">  ├── array-back@1.0.4 </tspan>
<tspan x="10" y="74">  ├─┬ command-line-args@4.0.2 </tspan>
<tspan x="10" y="90">  │ └── find-replace@1.0.3 </tspan>
<tspan x="10" y="106">  ├─┬ command-line-usage@4.0.0 </tspan>
<tspan x="10" y="122">  │ └─┬ table-layout@0.4.0 </tspan>
<tspan x="10" y="138">  │   ├── deep-extend@0.4.1 </tspan>
<tspan x="10" y="154">  │   ├── lodash.padend@4.6.1 </tspan>
<tspan x="10" y="170">  │   └── wordwrapjs@2.0.0 </tspan>
<tspan x="10" y="186">  ├─┬ config-master@3.1.0 </tspan>
<tspan x="10" y="202">  │ └── walk-back@2.0.1 </tspan>
<tspan x="10" y="218">  ├─┬ debug@2.6.3 </tspan>
<tspan x="10" y="234">  │ └── ms@0.7.2 </tspan>
<tspan x="10" y="250">  ├─┬ http-proxy@1.16.2 </tspan>
<tspan x="10" y="266">  │ ├── eventemitter3@1.2.0 </tspan>
<tspan x="10" y="282">  │ └── requires-port@1.0.0 </tspan>
<tspan x="10" y="298">  ├─┬ kcors@1.3.2 </tspan>
<tspan x="10" y="314">  │ └── copy-to@2.0.1 </tspan>
<tspan x="10" y="330">  ├─┬ koa@2.0.1 </tspan>
<tspan x="10" y="346">  │ ├─┬ accepts@1.3.3 </tspan>
<tspan x="10" y="362">  │ │ └── negotiator@0.6.1 </tspan>
<tspan x="10" y="378">  │ ├── content-disposition@0.5.2 </tspan>
<tspan x="10" y="394">  │ ├── content-type@1.0.2 </tspan>
<tspan x="10" y="410">  │ ├─┬ cookies@0.6.2 </tspan>
<tspan x="10" y="426">  │ │ └── keygrip@1.0.1 </tspan>
<tspan x="10" y="442">  │ ├── delegates@1.0.0 </tspan>
<tspan x="10" y="458">  │ ├── depd@1.1.0 </tspan>
<tspan x="10" y="474">  │ ├── destroy@1.0.4 </tspan>
<tspan x="10" y="490">  │ ├── error-inject@1.0.0 </tspan>
<tspan x="10" y="506">  │ ├── escape-html@1.0.3 </tspan>
<tspan x="10" y="522">  │ ├── fresh@0.3.0 </tspan>
<tspan x="10" y="538">  │ ├─┬ http-assert@1.2.0 </tspan>
<tspan x="10" y="554">  │ │ ├── deep-equal@1.0.1 </tspan>
<tspan x="10" y="570">  │ │ └─┬ http-errors@1.4.0 </tspan>
<tspan x="10" y="586">  │ │   └── inherits@2.0.1 </tspan>
<tspan x="10" y="602">  │ ├─┬ http-errors@1.6.1 </tspan>
<tspan x="10" y="618">  │ │ ├── inherits@2.0.3 </tspan>
<tspan x="10" y="634">  │ │ └── setprototypeof@1.0.3 </tspan>
<tspan x="10" y="650">  │ ├── is-generator-function@1.0.6 </tspan>
<tspan x="10" y="666">  │ ├─┬ koa-compose@3.2.1 </tspan>
<tspan x="10" y="682">  │ │ └── any-promise@1.3.0 </tspan>
<tspan x="10" y="698">  │ ├── koa-is-json@1.0.0 </tspan>
<tspan x="10" y="714">  │ ├─┬ mime-types@2.1.15 </tspan>
<tspan x="10" y="730">  │ │ └── mime-db@1.27.0 </tspan>
<tspan x="10" y="746">  │ ├─┬ on-finished@2.3.0 </tspan>
<tspan x="10" y="762">  │ │ └── ee-first@1.1.1 </tspan>
<tspan x="10" y="778">  │ ├── only@0.0.2 </tspan>
<tspan x="10" y="794">  │ ├── parseurl@1.3.1 </tspan>
<tspan x="10" y="810">  │ ├── statuses@1.3.1 </tspan>
<tspan x="10" y="826">  │ ├─┬ type-is@1.6.15 </tspan>
<tspan x="10" y="842">  │ │ └── media-typer@0.3.0 </tspan>
<tspan x="10" y="858">  │ └── vary@1.1.1 </tspan>
<tspan x="10" y="874">  ├─┬ koa-bodyparser@3.2.0 </tspan>
<tspan x="10" y="890">  │ └─┬ co-body@4.2.0 </tspan>
<tspan x="10" y="906">  │   ├── inflation@2.0.0 </tspan>
<tspan x="10" y="922">  │   ├── qs@4.0.0 </tspan>
<tspan x="10" y="938">  │   └─┬ raw-body@2.1.7 </tspan>
<tspan x="10" y="954">  │     ├── iconv-lite@0.4.13 </tspan>
<tspan x="10" y="970">  │     └── unpipe@1.0.0 </tspan>
<tspan x="10" y="986">  ├─┬ koa-compress@1.0.9 </tspan>
<tspan x="10" y="1002">  │ ├── bytes@2.4.0 </tspan>
<tspan x="10" y="1018">  │ └── compressible@2.0.10 </tspan>
<tspan x="10" y="1034">  ├── koa-conditional-get@1.0.3 </tspan>
<tspan x="10" y="1050">  ├─┬ koa-connect-history-api-fallback@0.3.1 </tspan>
<tspan x="10" y="1066">  │ └── connect-history-api-fallback@1.3.0 </tspan>
<tspan x="10" y="1082">  ├─┬ koa-convert@1.2.0 </tspan>
<tspan x="10" y="1098">  │ └── co@4.6.0 </tspan>
<tspan x="10" y="1114">  ├─┬ koa-etag@2.1.1 </tspan>
<tspan x="10" y="1130">  │ ├── etag@1.8.0 </tspan>
<tspan x="10" y="1146">  │ └─┬ mz@2.6.0 </tspan>
<tspan x="10" y="1162">  │   ├── object-assign@4.1.1 </tspan>
<tspan x="10" y="1178">  │   └─┬ thenify-all@1.6.0 </tspan>
<tspan x="10" y="1194">  │     └── thenify@3.2.1 </tspan>
<tspan x="10" y="1210">  ├─┬ koa-json@1.1.3 </tspan>
<tspan x="10" y="1226">  │ └─┬ streaming-json-stringify@3.1.0 </tspan>
<tspan x="10" y="1242">  │   ├── json-stringify-safe@5.0.1 </tspan>
<tspan x="10" y="1258">  │   └─┬ readable-stream@2.2.6 </tspan>
<tspan x="10" y="1274">  │     ├── buffer-shims@1.0.0 </tspan>
<tspan x="10" y="1290">  │     ├── core-util-is@1.0.2 </tspan>
<tspan x="10" y="1306">  │     ├── isarray@1.0.0 </tspan>
<tspan x="10" y="1322">  │     ├── process-nextick-args@1.0.7 </tspan>
<tspan x="10" y="1338">  │     ├── string_decoder@0.10.31 </tspan>
<tspan x="10" y="1354">  │     └── util-deprecate@1.0.2 </tspan>
<tspan x="10" y="1370">  ├─┬ koa-morgan@1.0.1 </tspan>
<tspan x="10" y="1386">  │ └─┬ morgan@1.8.1 </tspan>
<tspan x="10" y="1402">  │   ├── basic-auth@1.1.0 </tspan>
<tspan x="10" y="1418">  │   ├── debug@2.6.1 </tspan>
<tspan x="10" y="1434">  │   └── on-headers@1.0.1 </tspan>
<tspan x="10" y="1450">  ├─┬ koa-rewrite@2.1.0 </tspan>
<tspan x="10" y="1466">  │ └── path-to-regexp@0.0.2 </tspan>
<tspan x="10" y="1482">  ├─┬ koa-route@3.2.0 </tspan>
<tspan x="10" y="1498">  │ └── methods@1.1.2 </tspan>
<tspan x="10" y="1514">  ├─┬ koa-send@3.3.0 </tspan>
<tspan x="10" y="1530">  │ └─┬ resolve-path@1.3.3 </tspan>
<tspan x="10" y="1546">  │   ├─┬ http-errors@1.5.1 </tspan>
<tspan x="10" y="1562">  │   │ ├── inherits@2.0.3 </tspan>
<tspan x="10" y="1578">  │   │ └── setprototypeof@1.0.2 </tspan>
<tspan x="10" y="1594">  │   └── path-is-absolute@1.0.1 </tspan>
<tspan x="10" y="1610">  ├─┬ koa-serve-index@1.1.1 </tspan>
<tspan x="10" y="1626">  │ ├─┬ accepts@1.1.4 </tspan>
<tspan x="10" y="1642">  │ │ ├─┬ mime-types@2.0.14 </tspan>
<tspan x="10" y="1658">  │ │ │ └── mime-db@1.12.0 </tspan>
<tspan x="10" y="1674">  │ │ └── negotiator@0.4.9 </tspan>
<tspan x="10" y="1690">  │ ├── batch@0.5.1 </tspan>
<tspan x="10" y="1706">  │ └─┬ debug@2.0.0 </tspan>
<tspan x="10" y="1722">  │   └── ms@0.6.2 </tspan>
<tspan x="10" y="1738">  ├── koa-static@2.1.0 </tspan>
<tspan x="10" y="1754">  ├─┬ path-to-regexp@1.7.0 </tspan>
<tspan x="10" y="1770">  │ └── isarray@0.0.1 </tspan>
<tspan x="10" y="1786">  ├── reduce-flatten@1.0.1 </tspan>
<tspan x="10" y="1802">  ├─┬ stream-log-stats@1.1.7 </tspan>
<tspan x="10" y="1818">  │ ├─┬ ansi-escape-sequences@2.2.2 </tspan>
<tspan x="10" y="1834">  │ │ └─┬ collect-all@0.2.1 </tspan>
<tspan x="10" y="1850">  │ │   ├── stream-connect@1.0.2 </tspan>
<tspan x="10" y="1866">  │ │   └── stream-via@0.1.1 </tspan>
<tspan x="10" y="1882">  │ ├── byte-size@2.0.0 </tspan>
<tspan x="10" y="1898">  │ ├── common-log-format@0.1.3 </tspan>
<tspan x="10" y="1914">  │ ├─┬ JSONStream@1.3.1 </tspan>
<tspan x="10" y="1930">  │ │ ├── jsonparse@1.3.0 </tspan>
<tspan x="10" y="1946">  │ │ └── through@2.3.8 </tspan>
<tspan x="10" y="1962">  │ ├── lodash.throttle@4.1.1 </tspan>
<tspan x="10" y="1978">  │ ├── stream-via@1.0.3 </tspan>
<tspan x="10" y="1994">  │ └─┬ table-layout@0.2.3 </tspan>
<tspan x="10" y="2010">  │   ├── ansi-escape-sequences@3.0.0 </tspan>
<tspan x="10" y="2026">  │   ├─┬ collect-json@1.0.8 </tspan>
<tspan x="10" y="2042">  │   │ └── collect-all@1.0.2 </tspan>
<tspan x="10" y="2058">  │   ├─┬ command-line-tool@0.6.4 </tspan>
<tspan x="10" y="2074">  │   │ ├── command-line-args@3.0.5 </tspan>
<tspan x="10" y="2090">  │   │ └─┬ command-line-usage@3.0.8 </tspan>
<tspan x="10" y="2106">  │   │   └── table-layout@0.3.0 </tspan>
<tspan x="10" y="2122">  │   ├── core-js@2.4.1 </tspan>
<tspan x="10" y="2138">  │   ├── feature-detect-es6@1.3.1 </tspan>
<tspan x="10" y="2154">  │   └── wordwrapjs@1.2.1 </tspan>
<tspan x="10" y="2170">  ├── test-value@2.1.0 </tspan>
<tspan x="10" y="2186">  └── typical@2.6.0</tspan>
</text>
</svg>
